<svg id="Layer_1" enable-background="new 0 0 512 512" viewBox="0 0 512 512" xmlns="http://www.w3.org/2000/svg"><path d="m496.616 258.148h6.384c4.418 0 8-3.582 8-8v-82.371c0-12.138-9.875-22.014-22.014-22.014h-39.298v-30.54c0-12.138-9.875-22.014-22.014-22.014h-297.407c-.003 0-.006 0-.01 0s-.006 0-.01 0h-107.233c-12.138.001-22.014 9.876-22.014 22.015v82.371c0 4.418 3.582 8 8 8h6.383c13.304 0 24.128 10.824 24.128 24.129s-10.824 24.128-24.128 24.128h-6.383c-4.418 0-8 3.582-8 8v82.371c0 12.139 9.875 22.014 22.014 22.014h39.298v30.539c0 12.139 9.875 22.014 22.014 22.014h404.659c12.139 0 22.014-9.875 22.014-22.014v-82.371c0-4.418-3.582-8-8-8h-6.383c-13.304 0-24.128-10.824-24.128-24.128s10.824-24.129 24.128-24.129zm-479.616 86.075v-74.403c21.38-.852 38.511-18.511 38.511-40.096s-17.131-39.245-38.511-40.097v-74.403c0-3.316 2.698-6.014 6.014-6.014h99.243v12.61c0 4.418 3.582 8 8 8s8-3.582 8-8v-12.61h289.417c3.316 0 6.014 2.698 6.014 6.014v74.403c-21.38.852-38.511 18.511-38.511 40.097s17.131 39.245 38.511 40.096v74.403c0 3.316-2.698 6.014-6.014 6.014h-110.586v-33.214c24.145-11.788 41.168-38.342 41.168-65.228 0-26.07-12.248-47.954-34.487-61.621-2.469-1.518-5.565-1.581-8.093-.167-2.529 1.414-4.096 4.085-4.096 6.982v48.808l-25.608 14.785-25.608-14.785v-48.807c0-2.897-1.566-5.568-4.096-6.982-2.529-1.414-5.625-1.351-8.093.167-22.239 13.667-34.486 35.551-34.486 61.621 0 26.885 17.026 53.44 41.168 65.228v33.214h-116.6v-12.61c0-4.418-3.582-8-8-8s-8 3.582-8 8v12.61h-99.243c-3.316-.001-6.014-2.698-6.014-6.015zm248.735-39.894c-20.886-8.052-36.045-30.145-36.045-52.534 0-17.507 6.614-29.772 14.675-38.217v36.839c0 2.858 1.525 5.499 4 6.928l33.608 19.404c2.476 1.429 5.524 1.429 8 0l33.608-19.404c2.475-1.429 4-4.07 4-6.928v-36.839c8.061 8.445 14.675 20.71 14.675 38.217 0 22.388-15.159 44.481-36.046 52.534-3.086 1.19-5.122 4.157-5.122 7.464v38.444h-30.23v-38.444c-.001-3.308-2.037-6.274-5.123-7.464zm229.265 18.044v74.403c0 3.316-2.698 6.014-6.014 6.014h-404.66c-3.316 0-6.014-2.698-6.014-6.014v-30.539h349.361c12.138 0 22.014-9.875 22.014-22.014v-82.371c0-4.418-3.582-8-8-8h-6.383c-13.305 0-24.128-10.824-24.128-24.128s10.824-24.129 24.128-24.129h6.383c4.418 0 8-3.582 8-8v-35.831h39.298c3.316 0 6.014 2.698 6.014 6.014v74.403c-21.38.852-38.511 18.511-38.511 40.096s17.132 39.244 38.512 40.096zm-405.997-167.365h-38.749c-4.418 0-8-3.582-8-8s3.582-8 8-8h38.749c4.418 0 8 3.582 8 8s-3.582 8-8 8zm102.116 24.373h189.707c4.418 0 8-3.582 8-8v-38.511c0-4.418-3.582-8-8-8h-189.707c-4.418 0-8 3.582-8 8v38.512c0 4.418 3.581 7.999 8 7.999zm8-38.511h173.707v22.512h-173.707zm-110.116 171.701h-38.749c-4.418 0-8-3.582-8-8s3.582-8 8-8h38.749c4.418 0 8 3.582 8 8s-3.582 8-8 8zm-46.749-37.834c0-4.418 3.582-8 8-8h38.749c4.418 0 8 3.582 8 8s-3.582 8-8 8h-38.749c-4.418 0-8-3.582-8-8zm80.003-105.633v-20.61c0-4.418 3.582-8 8-8s8 3.582 8 8v20.61c0 4.418-3.582 8-8 8s-8-3.582-8-8zm0 47.283v-20.61c0-4.418 3.582-8 8-8s8 3.582 8 8v20.61c0 4.418-3.582 8-8 8s-8-3.582-8-8zm0 47.283v-20.61c0-4.418 3.582-8 8-8s8 3.582 8 8v20.61c0 4.418-3.582 8-8 8s-8-3.581-8-8zm0 47.284v-20.61c0-4.418 3.582-8 8-8s8 3.582 8 8v20.61c0 4.418-3.582 8-8 8s-8-3.582-8-8z"/></svg>